<mxfile host="app.diagrams.net" modified="2024-03-04T14:05:40.151Z" agent="Mozilla/5.0 (Windows NT 10.0; Win64; x64; rv:123.0) Gecko/20100101 Firefox/123.0" etag="MJx73yXECXbchQASpQ0O" version="24.0.0" type="github">
  <diagram id="C5RBs43oDa-KdzZeNtuy" name="Page-1">
    <mxGraphModel dx="3192" dy="330" grid="0" gridSize="10" guides="1" tooltips="1" connect="1" arrows="1" fold="1" page="0" pageScale="1" pageWidth="827" pageHeight="1169" math="0" shadow="0">
      <root>
        <mxCell id="WIyWlLk6GJQsqaUBKTNV-0" />
        <mxCell id="WIyWlLk6GJQsqaUBKTNV-1" parent="WIyWlLk6GJQsqaUBKTNV-0" />
        <mxCell id="Z0-859JoU0TvKjbYaFMb-75" value="" style="edgeStyle=orthogonalEdgeStyle;rounded=1;html=1;jettySize=auto;orthogonalLoop=1;fontSize=11;endArrow=block;endFill=0;endSize=8;strokeWidth=1;shadow=0;labelBackgroundColor=none;" parent="WIyWlLk6GJQsqaUBKTNV-1" edge="1">
          <mxGeometry y="10" relative="1" as="geometry">
            <mxPoint as="offset" />
            <mxPoint x="720" y="810" as="sourcePoint" />
            <mxPoint x="770" y="810" as="targetPoint" />
          </mxGeometry>
        </mxCell>
        <mxCell id="ypgVBUXqUjG8dvaRugaR-0" value="" style="endArrow=none;html=1;rounded=0;strokeColor=default;align=center;verticalAlign=middle;fontFamily=Helvetica;fontSize=11;fontColor=default;labelBackgroundColor=default;" parent="WIyWlLk6GJQsqaUBKTNV-1" edge="1">
          <mxGeometry width="50" height="50" relative="1" as="geometry">
            <mxPoint x="-12" y="884" as="sourcePoint" />
            <mxPoint x="1061" y="874" as="targetPoint" />
          </mxGeometry>
        </mxCell>
        <mxCell id="ypgVBUXqUjG8dvaRugaR-1" value="&lt;font style=&quot;font-size: 16px;&quot;&gt;CollecteDsPamCJobListener.beforeJob:&amp;nbsp;&lt;/font&gt; &lt;div&gt;&lt;br&gt;&lt;/div&gt;&lt;font style=&quot;font-size: 14px;&quot;&gt;loggue les fichiers XML à traiter&lt;br&gt;&lt;/font&gt;&lt;div&gt;&lt;br&gt;&lt;/div&gt;" style="rounded=1;whiteSpace=wrap;html=1;fontSize=12;glass=0;strokeWidth=1;shadow=0;fillColor=#fff2cc;strokeColor=#d6b656;" parent="WIyWlLk6GJQsqaUBKTNV-1" vertex="1">
          <mxGeometry x="-540" y="1452" width="354" height="69" as="geometry" />
        </mxCell>
        <mxCell id="ypgVBUXqUjG8dvaRugaR-2" value="&lt;font style=&quot;font-size: 16px;&quot;&gt;CollecteDsPamCFileValidationTasklet :&lt;/font&gt; &lt;div&gt;&lt;br&gt;&lt;/div&gt;&lt;div&gt;&lt;font style=&quot;font-size: 14px;&quot;&gt;vérifie que le fichier XML&amp;nbsp;&lt;/font&gt;&lt;/div&gt;&lt;div&gt;&lt;font style=&quot;font-size: 14px;&quot;&gt;respecte une spécification XSD&lt;/font&gt;&lt;/div&gt;&lt;div&gt;&lt;font style=&quot;font-size: 14px;&quot;&gt;ajoute des lignes aux tables &lt;b&gt;formulaire, journal&lt;/b&gt;&lt;br&gt;&lt;/font&gt;&lt;/div&gt;" style="rounded=1;whiteSpace=wrap;html=1;fontSize=12;glass=0;strokeWidth=1;shadow=0;fillColor=#d5e8d4;strokeColor=#82b366;" parent="WIyWlLk6GJQsqaUBKTNV-1" vertex="1">
          <mxGeometry x="345.5" y="1045" width="353" height="100" as="geometry" />
        </mxCell>
        <mxCell id="vLVHsrwQye5eSx9jJqd1-1" value="&lt;font style=&quot;font-size: 16px;&quot;&gt;CollecteDsPamCReader:&lt;/font&gt; &lt;div&gt;&lt;br&gt;&lt;/div&gt;&lt;div&gt;&lt;font style=&quot;font-size: 14px;&quot;&gt;lit un fichier XML, retourne une &lt;br&gt;&lt;/font&gt;&lt;/div&gt;&lt;div&gt;&lt;font style=&quot;font-size: 14px;&quot;&gt;List&amp;lt;DecalarantInner&amp;gt;&lt;br&gt;&lt;/font&gt;&lt;/div&gt;" style="rounded=1;whiteSpace=wrap;html=1;fontSize=12;glass=0;strokeWidth=1;shadow=0;fillColor=#dae8fc;strokeColor=#6c8ebf;" parent="WIyWlLk6GJQsqaUBKTNV-1" vertex="1">
          <mxGeometry x="-5" y="1241" width="354" height="68" as="geometry" />
        </mxCell>
        <mxCell id="KYpUYDvrFZtHWe_mYUHW-0" value="&lt;font style=&quot;font-size: 16px;&quot;&gt;CollecteDsPamCProcessor:&lt;/font&gt; &lt;div&gt;&lt;br&gt;&lt;/div&gt;&lt;div&gt;&lt;font style=&quot;font-size: 14px;&quot;&gt;prend un DeclarantInner, retourne un PamDgfip &lt;br&gt;&lt;/font&gt;&lt;/div&gt;" style="rounded=1;whiteSpace=wrap;html=1;fontSize=12;glass=0;strokeWidth=1;shadow=0;fillColor=#dae8fc;strokeColor=#6c8ebf;" vertex="1" parent="WIyWlLk6GJQsqaUBKTNV-1">
          <mxGeometry x="-11" y="1366" width="354" height="68" as="geometry" />
        </mxCell>
        <mxCell id="KYpUYDvrFZtHWe_mYUHW-1" value="&lt;font style=&quot;font-size: 16px;&quot;&gt;CollecteDsPamCWriter:&lt;/font&gt; &lt;div&gt;&lt;br&gt;&lt;/div&gt;&lt;div&gt;&lt;font style=&quot;font-size: 14px;&quot;&gt;&amp;nbsp;prend une List&amp;lt;PamDgfip&amp;gt;&amp;nbsp;&lt;/font&gt;&lt;/div&gt;&lt;div&gt;&lt;font style=&quot;font-size: 14px;&quot;&gt;ajoute des lignes aux tables&lt;/font&gt;&lt;/div&gt;&lt;div&gt;&lt;font style=&quot;font-size: 14px;&quot;&gt;&lt;b&gt;pamDgfip, champsPamDgfip&lt;/b&gt; et &lt;b&gt;activitePamDgfip&lt;/b&gt; &lt;br&gt;&lt;/font&gt;&lt;/div&gt;" style="rounded=1;whiteSpace=wrap;html=1;fontSize=12;glass=0;strokeWidth=1;shadow=0;fillColor=#dae8fc;strokeColor=#6c8ebf;" vertex="1" parent="WIyWlLk6GJQsqaUBKTNV-1">
          <mxGeometry x="-7" y="1511" width="352.5" height="89" as="geometry" />
        </mxCell>
        <mxCell id="KYpUYDvrFZtHWe_mYUHW-2" value="&lt;font style=&quot;font-size: 16px;&quot;&gt;CollecteDsPamCStepListener.afterJob:&amp;nbsp;&lt;/font&gt; &lt;div&gt;&lt;font style=&quot;font-size: 14px;&quot;&gt;stocke le compte des entrées lues &amp;amp; traitées&lt;/font&gt;&lt;/div&gt;&lt;div&gt;&lt;font style=&quot;font-size: 14px;&quot;&gt;dans le jobInfo&lt;br&gt;&lt;/font&gt;&lt;/div&gt;&lt;div&gt;&lt;br&gt;&lt;/div&gt;" style="rounded=1;whiteSpace=wrap;html=1;fontSize=12;glass=0;strokeWidth=1;shadow=0;fillColor=#fff2cc;strokeColor=#d6b656;" vertex="1" parent="WIyWlLk6GJQsqaUBKTNV-1">
          <mxGeometry x="-5" y="1699" width="354" height="71" as="geometry" />
        </mxCell>
        <mxCell id="KYpUYDvrFZtHWe_mYUHW-4" value="" style="endArrow=none;html=1;rounded=0;" edge="1" parent="WIyWlLk6GJQsqaUBKTNV-1">
          <mxGeometry width="50" height="50" relative="1" as="geometry">
            <mxPoint x="-23" y="1797" as="sourcePoint" />
            <mxPoint x="364" y="1794" as="targetPoint" />
          </mxGeometry>
        </mxCell>
        <mxCell id="KYpUYDvrFZtHWe_mYUHW-5" value="" style="endArrow=none;html=1;rounded=0;" edge="1" parent="WIyWlLk6GJQsqaUBKTNV-1">
          <mxGeometry width="50" height="50" relative="1" as="geometry">
            <mxPoint x="-20" y="1219" as="sourcePoint" />
            <mxPoint x="367" y="1216" as="targetPoint" />
          </mxGeometry>
        </mxCell>
        <mxCell id="KYpUYDvrFZtHWe_mYUHW-6" value="" style="endArrow=none;html=1;rounded=0;" edge="1" parent="WIyWlLk6GJQsqaUBKTNV-1">
          <mxGeometry width="50" height="50" relative="1" as="geometry">
            <mxPoint x="365" y="1792" as="sourcePoint" />
            <mxPoint x="365" y="1218" as="targetPoint" />
          </mxGeometry>
        </mxCell>
        <mxCell id="KYpUYDvrFZtHWe_mYUHW-8" value="&lt;font style=&quot;font-size: 16px;&quot;&gt;CollecteDsPamCLogVolumeTasklet :&lt;/font&gt; &lt;div&gt;&lt;br&gt;&lt;/div&gt;&lt;br&gt;&lt;div&gt;&lt;font style=&quot;font-size: 14px;&quot;&gt;ajoute une ligne à la table &lt;b&gt;formulaire&lt;/b&gt;&lt;br&gt;&lt;/font&gt;&lt;/div&gt;" style="rounded=1;whiteSpace=wrap;html=1;fontSize=12;glass=0;strokeWidth=1;shadow=0;fillColor=#d5e8d4;strokeColor=#82b366;" vertex="1" parent="WIyWlLk6GJQsqaUBKTNV-1">
          <mxGeometry x="411" y="1790" width="268" height="101" as="geometry" />
        </mxCell>
        <mxCell id="KYpUYDvrFZtHWe_mYUHW-9" value="&lt;font style=&quot;font-size: 16px;&quot;&gt;CollecteDsPamArchivageFileInputTasklet :&lt;/font&gt; &lt;div&gt;&lt;br&gt;&lt;/div&gt;&lt;br&gt;&lt;div&gt;&lt;font style=&quot;font-size: 14px;&quot;&gt;archive le fichier XML traité&lt;br&gt;&lt;/font&gt;&lt;/div&gt;" style="rounded=1;whiteSpace=wrap;html=1;fontSize=12;glass=0;strokeWidth=1;shadow=0;fillColor=#d5e8d4;strokeColor=#82b366;" vertex="1" parent="WIyWlLk6GJQsqaUBKTNV-1">
          <mxGeometry x="748" y="1784" width="313" height="101" as="geometry" />
        </mxCell>
        <mxCell id="KYpUYDvrFZtHWe_mYUHW-10" value="&lt;font style=&quot;font-size: 16px;&quot;&gt;CollecteDsPamCJobListener.afterJob:&amp;nbsp;&lt;/font&gt; &lt;div&gt;&lt;br&gt;&lt;/div&gt;&lt;font style=&quot;font-size: 14px;&quot;&gt;loggue et envoie un mail de bilan&lt;br&gt;&lt;/font&gt;&lt;div&gt;&lt;br&gt;&lt;/div&gt;" style="rounded=1;whiteSpace=wrap;html=1;fontSize=12;glass=0;strokeWidth=1;shadow=0;fillColor=#fff2cc;strokeColor=#d6b656;" vertex="1" parent="WIyWlLk6GJQsqaUBKTNV-1">
          <mxGeometry x="1217" y="1405" width="354" height="98" as="geometry" />
        </mxCell>
        <mxCell id="KYpUYDvrFZtHWe_mYUHW-11" value="&lt;font style=&quot;font-size: 16px;&quot;&gt;CollecteDsPamCRemainingFileTasklet :&lt;/font&gt; &lt;div&gt;&lt;br&gt;&lt;/div&gt;&lt;div&gt;&lt;font style=&quot;font-size: 14px;&quot;&gt;regarde s&#39;il reste des fichiers XML à traiter &lt;br&gt;&lt;/font&gt;&lt;/div&gt;&lt;div&gt;&lt;font style=&quot;font-size: 14px;&quot;&gt;en marque un pour le prochain traitement&lt;br&gt;&lt;/font&gt;&lt;/div&gt;" style="rounded=1;whiteSpace=wrap;html=1;fontSize=12;glass=0;strokeWidth=1;shadow=0;fillColor=#d5e8d4;strokeColor=#82b366;" vertex="1" parent="WIyWlLk6GJQsqaUBKTNV-1">
          <mxGeometry x="702" y="1405" width="353" height="100" as="geometry" />
        </mxCell>
        <mxCell id="KYpUYDvrFZtHWe_mYUHW-12" value="" style="endArrow=none;html=1;rounded=0;" edge="1" parent="WIyWlLk6GJQsqaUBKTNV-1">
          <mxGeometry width="50" height="50" relative="1" as="geometry">
            <mxPoint x="-21" y="1796" as="sourcePoint" />
            <mxPoint x="-21" y="1216" as="targetPoint" />
          </mxGeometry>
        </mxCell>
        <mxCell id="KYpUYDvrFZtHWe_mYUHW-15" value="" style="endArrow=classic;html=1;rounded=0;entryX=0.5;entryY=0;entryDx=0;entryDy=0;" edge="1" parent="WIyWlLk6GJQsqaUBKTNV-1" target="KYpUYDvrFZtHWe_mYUHW-0">
          <mxGeometry width="50" height="50" relative="1" as="geometry">
            <mxPoint x="165" y="1307" as="sourcePoint" />
            <mxPoint x="165" y="1354" as="targetPoint" />
          </mxGeometry>
        </mxCell>
        <mxCell id="KYpUYDvrFZtHWe_mYUHW-16" value="" style="endArrow=classic;html=1;rounded=0;" edge="1" parent="WIyWlLk6GJQsqaUBKTNV-1">
          <mxGeometry width="50" height="50" relative="1" as="geometry">
            <mxPoint x="165" y="1434" as="sourcePoint" />
            <mxPoint x="165" y="1512" as="targetPoint" />
          </mxGeometry>
        </mxCell>
        <mxCell id="KYpUYDvrFZtHWe_mYUHW-18" value="" style="endArrow=classic;html=1;rounded=0;entryX=0.472;entryY=0.014;entryDx=0;entryDy=0;entryPerimeter=0;" edge="1" parent="WIyWlLk6GJQsqaUBKTNV-1" target="KYpUYDvrFZtHWe_mYUHW-2">
          <mxGeometry width="50" height="50" relative="1" as="geometry">
            <mxPoint x="162" y="1600" as="sourcePoint" />
            <mxPoint x="162" y="1685" as="targetPoint" />
          </mxGeometry>
        </mxCell>
        <mxCell id="KYpUYDvrFZtHWe_mYUHW-19" value="" style="endArrow=classic;html=1;rounded=0;" edge="1" parent="WIyWlLk6GJQsqaUBKTNV-1">
          <mxGeometry width="50" height="50" relative="1" as="geometry">
            <mxPoint x="1711" y="1000" as="sourcePoint" />
            <mxPoint x="1826" y="1000" as="targetPoint" />
          </mxGeometry>
        </mxCell>
        <mxCell id="KYpUYDvrFZtHWe_mYUHW-20" value="" style="endArrow=classic;html=1;rounded=0;" edge="1" parent="WIyWlLk6GJQsqaUBKTNV-1">
          <mxGeometry width="50" height="50" relative="1" as="geometry">
            <mxPoint x="679" y="1839.5" as="sourcePoint" />
            <mxPoint x="746" y="1840" as="targetPoint" />
          </mxGeometry>
        </mxCell>
        <mxCell id="KYpUYDvrFZtHWe_mYUHW-23" value="" style="endArrow=none;html=1;rounded=0;" edge="1" parent="WIyWlLk6GJQsqaUBKTNV-1">
          <mxGeometry width="50" height="50" relative="1" as="geometry">
            <mxPoint x="-100" y="1033" as="sourcePoint" />
            <mxPoint x="1126" y="1020" as="targetPoint" />
          </mxGeometry>
        </mxCell>
        <mxCell id="KYpUYDvrFZtHWe_mYUHW-24" value="" style="endArrow=none;html=1;rounded=0;" edge="1" parent="WIyWlLk6GJQsqaUBKTNV-1">
          <mxGeometry width="50" height="50" relative="1" as="geometry">
            <mxPoint x="-94" y="1921" as="sourcePoint" />
            <mxPoint x="1135" y="1908" as="targetPoint" />
          </mxGeometry>
        </mxCell>
        <mxCell id="KYpUYDvrFZtHWe_mYUHW-25" value="" style="endArrow=none;html=1;rounded=0;" edge="1" parent="WIyWlLk6GJQsqaUBKTNV-1">
          <mxGeometry width="50" height="50" relative="1" as="geometry">
            <mxPoint x="1130" y="1914" as="sourcePoint" />
            <mxPoint x="1121" y="1034" as="targetPoint" />
          </mxGeometry>
        </mxCell>
        <mxCell id="KYpUYDvrFZtHWe_mYUHW-28" value="" style="endArrow=classic;html=1;rounded=0;entryX=0.571;entryY=0.99;entryDx=0;entryDy=0;entryPerimeter=0;" edge="1" parent="WIyWlLk6GJQsqaUBKTNV-1" source="KYpUYDvrFZtHWe_mYUHW-9" target="KYpUYDvrFZtHWe_mYUHW-11">
          <mxGeometry width="50" height="50" relative="1" as="geometry">
            <mxPoint x="904" y="1778" as="sourcePoint" />
            <mxPoint x="903.5" y="1686" as="targetPoint" />
          </mxGeometry>
        </mxCell>
        <mxCell id="KYpUYDvrFZtHWe_mYUHW-27" value="" style="endArrow=none;html=1;rounded=0;" edge="1" parent="WIyWlLk6GJQsqaUBKTNV-1">
          <mxGeometry width="50" height="50" relative="1" as="geometry">
            <mxPoint x="-92" y="1926" as="sourcePoint" />
            <mxPoint x="-101" y="1032" as="targetPoint" />
          </mxGeometry>
        </mxCell>
        <mxCell id="KYpUYDvrFZtHWe_mYUHW-29" value="" style="endArrow=classic;html=1;rounded=0;" edge="1" parent="WIyWlLk6GJQsqaUBKTNV-1">
          <mxGeometry width="50" height="50" relative="1" as="geometry">
            <mxPoint x="-186" y="1478" as="sourcePoint" />
            <mxPoint x="-102" y="1478" as="targetPoint" />
          </mxGeometry>
        </mxCell>
        <mxCell id="KYpUYDvrFZtHWe_mYUHW-31" value="" style="endArrow=classic;html=1;rounded=0;" edge="1" parent="WIyWlLk6GJQsqaUBKTNV-1">
          <mxGeometry width="50" height="50" relative="1" as="geometry">
            <mxPoint x="1124" y="1454" as="sourcePoint" />
            <mxPoint x="1218" y="1454" as="targetPoint" />
          </mxGeometry>
        </mxCell>
        <mxCell id="KYpUYDvrFZtHWe_mYUHW-32" value="" style="endArrow=classic;html=1;rounded=0;exitX=0.5;exitY=1;exitDx=0;exitDy=0;" edge="1" parent="WIyWlLk6GJQsqaUBKTNV-1" source="ypgVBUXqUjG8dvaRugaR-2">
          <mxGeometry width="50" height="50" relative="1" as="geometry">
            <mxPoint x="279" y="1147" as="sourcePoint" />
            <mxPoint x="186" y="1216" as="targetPoint" />
          </mxGeometry>
        </mxCell>
        <mxCell id="KYpUYDvrFZtHWe_mYUHW-33" value="" style="endArrow=classic;html=1;rounded=0;exitX=0.5;exitY=1;exitDx=0;exitDy=0;" edge="1" parent="WIyWlLk6GJQsqaUBKTNV-1" source="ypgVBUXqUjG8dvaRugaR-2" target="KYpUYDvrFZtHWe_mYUHW-11">
          <mxGeometry width="50" height="50" relative="1" as="geometry">
            <mxPoint x="555" y="1148" as="sourcePoint" />
            <mxPoint x="646" y="1238" as="targetPoint" />
          </mxGeometry>
        </mxCell>
        <mxCell id="KYpUYDvrFZtHWe_mYUHW-34" value="" style="endArrow=classic;html=1;rounded=0;" edge="1" parent="WIyWlLk6GJQsqaUBKTNV-1">
          <mxGeometry width="50" height="50" relative="1" as="geometry">
            <mxPoint x="702" y="1434" as="sourcePoint" />
            <mxPoint x="362" y="1430" as="targetPoint" />
          </mxGeometry>
        </mxCell>
        <mxCell id="KYpUYDvrFZtHWe_mYUHW-37" value="STOPPED" style="text;html=1;align=center;verticalAlign=middle;whiteSpace=wrap;rounded=0;fontSize=24;" vertex="1" parent="WIyWlLk6GJQsqaUBKTNV-1">
          <mxGeometry x="713" y="1250" width="60" height="30" as="geometry" />
        </mxCell>
        <mxCell id="KYpUYDvrFZtHWe_mYUHW-39" value="COMPLETED" style="text;html=1;align=center;verticalAlign=middle;whiteSpace=wrap;rounded=0;fontSize=24;" vertex="1" parent="WIyWlLk6GJQsqaUBKTNV-1">
          <mxGeometry x="199" y="1145" width="60" height="30" as="geometry" />
        </mxCell>
        <mxCell id="KYpUYDvrFZtHWe_mYUHW-41" value="" style="endArrow=classic;html=1;rounded=0;entryX=0.5;entryY=0;entryDx=0;entryDy=0;" edge="1" parent="WIyWlLk6GJQsqaUBKTNV-1" target="KYpUYDvrFZtHWe_mYUHW-8">
          <mxGeometry width="50" height="50" relative="1" as="geometry">
            <mxPoint x="361" y="1452" as="sourcePoint" />
            <mxPoint x="452" y="1560" as="targetPoint" />
          </mxGeometry>
        </mxCell>
        <mxCell id="KYpUYDvrFZtHWe_mYUHW-42" value="" style="endArrow=classic;html=1;rounded=0;entryX=0;entryY=0.49;entryDx=0;entryDy=0;entryPerimeter=0;" edge="1" parent="WIyWlLk6GJQsqaUBKTNV-1" target="KYpUYDvrFZtHWe_mYUHW-11">
          <mxGeometry width="50" height="50" relative="1" as="geometry">
            <mxPoint x="367" y="1450" as="sourcePoint" />
            <mxPoint x="482" y="1450" as="targetPoint" />
          </mxGeometry>
        </mxCell>
        <mxCell id="KYpUYDvrFZtHWe_mYUHW-43" value="COMPLETED" style="text;html=1;align=center;verticalAlign=middle;whiteSpace=wrap;rounded=0;fontSize=24;" vertex="1" parent="WIyWlLk6GJQsqaUBKTNV-1">
          <mxGeometry x="529" y="1633" width="60" height="30" as="geometry" />
        </mxCell>
        <mxCell id="KYpUYDvrFZtHWe_mYUHW-44" value="FAILED" style="text;html=1;align=center;verticalAlign=middle;whiteSpace=wrap;rounded=0;fontSize=24;" vertex="1" parent="WIyWlLk6GJQsqaUBKTNV-1">
          <mxGeometry x="515" y="1471.5" width="60" height="30" as="geometry" />
        </mxCell>
        <mxCell id="KYpUYDvrFZtHWe_mYUHW-45" value="&lt;font size=&quot;1&quot;&gt;&lt;b style=&quot;font-size: 20px;&quot;&gt;Batch global&lt;/b&gt;&lt;/font&gt;" style="text;html=1;align=center;verticalAlign=middle;whiteSpace=wrap;rounded=1;" vertex="1" parent="WIyWlLk6GJQsqaUBKTNV-1">
          <mxGeometry x="-186" y="978" width="303" height="46" as="geometry" />
        </mxCell>
        <mxCell id="KYpUYDvrFZtHWe_mYUHW-48" value="" style="endArrow=classic;html=1;rounded=0;" edge="1" parent="WIyWlLk6GJQsqaUBKTNV-1">
          <mxGeometry width="50" height="50" relative="1" as="geometry">
            <mxPoint x="1785" y="1169" as="sourcePoint" />
            <mxPoint x="1785" y="1254" as="targetPoint" />
          </mxGeometry>
        </mxCell>
        <mxCell id="KYpUYDvrFZtHWe_mYUHW-49" value="&lt;font size=&quot;1&quot;&gt;&lt;b style=&quot;font-size: 20px;&quot;&gt;Batch collecteDsPamBatch &lt;br&gt;&lt;/b&gt;&lt;/font&gt;" style="text;html=1;align=center;verticalAlign=middle;whiteSpace=wrap;rounded=1;" vertex="1" parent="WIyWlLk6GJQsqaUBKTNV-1">
          <mxGeometry x="-42" y="1804" width="303" height="46" as="geometry" />
        </mxCell>
      </root>
    </mxGraphModel>
  </diagram>
</mxfile>
